<svg width="18" height="18" viewBox="0 0 24 24" 
    xmlns="http://www.w3.org/2000/svg" class="cpY4Rk">
    <g fill="none" fill-rule="evenodd">
        <path d="M9.466 18.257h4.87c0 1.764 1.42 3.195 3.174 3.195a3.185 3.185 0 0 0 3.175-3.195H22.5c.276 0 .499-.23.499-.496v-5.57l-3.273-4.868h-3.261V4.645a.497.497 0 0 0-.497-.502H1.497A.498.498 0 0 0 1 4.645v13.11c0 .277.219.502.497.502h1.62a3.185 3.185 0 0 0 3.175 3.195 3.185 3.185 0 0 0 3.174-3.195zm6.978-8.381H18.7l2.214 3.057h-4.47V9.876zm2.644 8.381c0 .877-.706 1.588-1.578 1.588a1.583 1.583 0 0 1-1.578-1.588c0-.877.706-1.588 1.578-1.588.872 0 1.578.71 1.578 1.588zm-11.218 0c0 .877-.707 1.588-1.578 1.588a1.583 1.583 0 0 1-1.579-1.588c0-.877.707-1.588 1.579-1.588.871 0 1.578.71 1.578 1.588z" fill="#F44336"></path>
    </g>
</svg>